<svg width="512" height="512" viewBox="0 0 512 512" fill="none"
    xmlns="http://www.w3.org/2000/svg">
    <path d="M256 451C363.696 451 451 363.696 451 256C451 148.304 363.696 61 256 61C148.304 61 61 148.304 61 256C61 363.696 148.304 451 256 451Z" fill="#0A192F"/>
    <path d="M256 469.333C138.368 469.333 42.6667 373.632 42.6667 256C42.6667 138.368 138.368 42.6667 256 42.6667C310.752 42.6667 362.805 63.3813 402.571 100.981C406.848 105.024 407.04 111.787 402.987 116.064C398.933 120.363 392.171 120.523 387.904 116.491C352.128 82.6453 305.28 64 256 64C150.133 64 64 150.133 64 256C64 361.867 150.133 448 256 448C361.867 448 448 361.867 448 256C448 241.461 446.379 226.997 443.168 213.003C441.856 207.253 445.44 201.536 451.179 200.224C456.885 198.869 462.635 202.485 463.957 208.235C467.52 223.787 469.333 239.861 469.333 256C469.333 373.632 373.632 469.333 256 469.333Z" fill="#22C55D"/>
    <path d="M405.333 149.333C423.006 149.333 437.333 135.006 437.333 117.333C437.333 99.6602 423.006 85.3333 405.333 85.3333C387.66 85.3333 373.333 99.6602 373.333 117.333C373.333 135.006 387.66 149.333 405.333 149.333Z" fill="#22C55D"/>
    <path d="M268 149H220.8L150 362H197.2L268 149Z" fill="#22C55D"/>
    <path d="M245 149H292.2L363 362H315.8L245 149Z" fill="#22C55D"/>
    <path d="M280 327H197V279H268.143L280 327Z" fill="#22C55D"/>
</svg>
